<svg width="24" height="24" viewBox="0 0 24 24" fill="none" xmlns="http://www.w3.org/2000/svg">
<path d="M12.5106 4.51064C12.5106 4.22862 12.282 4 12 4C11.718 4 11.4894 4.22862 11.4894 4.51064V5.87234C11.4894 6.15436 11.718 6.38298 12 6.38298C12.282 6.38298 12.5106 6.15436 12.5106 5.87234V4.51064Z" fill="black" fill-opacity="0.24"/>
<path d="M7.0653 6.34315C6.86588 6.14373 6.54256 6.14373 6.34315 6.34315C6.14373 6.54256 6.14373 6.86588 6.34315 7.0653L7.30601 8.02817C7.50543 8.22758 7.82875 8.22758 8.02817 8.02817C8.22758 7.82875 8.22758 7.50543 8.02817 7.30601L7.0653 6.34315Z" fill="black" fill-opacity="0.24"/>
<path d="M17.6569 7.0653C17.8563 6.86588 17.8563 6.54256 17.6569 6.34315C17.4574 6.14373 17.1341 6.14373 16.9347 6.34315L15.9718 7.30601C15.7724 7.50543 15.7724 7.82875 15.9718 8.02817C16.1712 8.22758 16.4946 8.22758 16.694 8.02817L17.6569 7.0653Z" fill="black" fill-opacity="0.24"/>
<path fill-rule="evenodd" clip-rule="evenodd" d="M12 7.40426C9.46184 7.40426 7.40426 9.46184 7.40426 12C7.40426 14.5382 9.46184 16.5957 12 16.5957C14.5382 16.5957 16.5957 14.5382 16.5957 12C16.5957 9.46184 14.5382 7.40426 12 7.40426Z" fill="black" fill-opacity="0.24"/>
<path d="M4.51064 11.4894C4.22862 11.4894 4 11.718 4 12C4 12.282 4.22862 12.5106 4.51064 12.5106H5.87234C6.15436 12.5106 6.38298 12.282 6.38298 12C6.38298 11.718 6.15436 11.4894 5.87234 11.4894H4.51064Z" fill="black" fill-opacity="0.24"/>
<path d="M18.1277 11.4894C17.8456 11.4894 17.617 11.718 17.617 12C17.617 12.282 17.8456 12.5106 18.1277 12.5106H19.4894C19.7714 12.5106 20 12.282 20 12C20 11.718 19.7714 11.4894 19.4894 11.4894H18.1277Z" fill="black" fill-opacity="0.24"/>
<path d="M8.02817 16.694C8.22758 16.4946 8.22758 16.1712 8.02817 15.9718C7.82875 15.7724 7.50543 15.7724 7.30601 15.9718L6.34315 16.9347C6.14373 17.1341 6.14373 17.4574 6.34315 17.6569C6.54256 17.8563 6.86588 17.8563 7.0653 17.6569L8.02817 16.694Z" fill="black" fill-opacity="0.24"/>
<path d="M16.694 15.9718C16.4946 15.7724 16.1712 15.7724 15.9718 15.9718C15.7724 16.1712 15.7724 16.4946 15.9718 16.694L16.9347 17.6569C17.1341 17.8563 17.4574 17.8563 17.6569 17.6569C17.8563 17.4574 17.8563 17.1341 17.6569 16.9347L16.694 15.9718Z" fill="black" fill-opacity="0.24"/>
<path d="M12.5106 18.1277C12.5106 17.8456 12.282 17.617 12 17.617C11.718 17.617 11.4894 17.8456 11.4894 18.1277V19.4894C11.4894 19.7714 11.718 20 12 20C12.282 20 12.5106 19.7714 12.5106 19.4894V18.1277Z" fill="black" fill-opacity="0.24"/>
</svg>
